<svg height="92" viewBox="0 0 126 92" width="126" xmlns="http://www.w3.org/2000/svg" xmlns:xlink="http://www.w3.org/1999/xlink"><linearGradient id="a" x1="36.312%" x2="76.461%" y1="8.947%" y2="100%"><stop offset="0" stop-color="#ffc100"/><stop offset="1" stop-color="#ffa300"/></linearGradient><g fill="none" fill-rule="evenodd" transform="translate(1 1)"><path d="m31.0919085 84.5520429v-48.8770715c0-2.4666428 1.9948539-4.4665714 4.4560289-4.4665714h76.4439556c2.461176 0 4.456029 1.9999286 4.456029 4.4665714v48.8770715z" fill="#fff"/><path d="m31.0919085 84.5520429v-48.8770715c0-2.4666428 1.9948539-4.4665714 4.4560289-4.4665714h76.4439556c2.461176 0 4.456029 1.9999286 4.456029 4.4665714v48.8770715z" stroke="#4c4c4c" stroke-linejoin="round" stroke-width="1.8"/><path d="m109.824558 84.78495h-72.1097987v-44.5911429c0-1.2966428 1.0487415-2.3477142 2.3418687-2.3477142h67.426703c1.293127 0 2.341227 1.0510714 2.341227 2.3477142z" fill="#f0f0f0"/><path d="m109.824558 84.78495h-72.1097987v-44.5911429c0-1.2966428 1.0487415-2.3477142 2.3418687-2.3477142h67.426703c1.293127 0 2.341227 1.0510714 2.341227 2.3477142z" stroke="#4c4c4c" stroke-linejoin="round" stroke-width="1.8"/><path d="m75.2906227 34.5146786c0 .8421428-.6812009 1.5242143-1.5208355 1.5242143-.8396347 0-1.5201942-.6820715-1.5201942-1.5242143 0-.8415.6805595-1.5235715 1.5201942-1.5235715.8396346 0 1.5208355.6820715 1.5208355 1.5235715" fill="#e8e8e8"/><path d="m75.2906227 34.5146786c0 .8421428-.6812009 1.5242143-1.5208355 1.5242143-.8396347 0-1.5201942-.6820715-1.5201942-1.5242143 0-.8415.6805595-1.5235715 1.5201942-1.5235715.8396346 0 1.5208355.6820715 1.5208355 1.5235715z" stroke="#4c4c4c" stroke-width="1.8"/><path d="m119.95848 90h-92.3771295c-2.2039608 0-3.9903493-1.7903571-3.9903493-3.9998571v-1.9568572h100.3584698v1.9568572c0 2.2095-1.786388 3.9998571-3.990991 3.9998571" fill="#fff"/><path d="m119.95848 90h-92.3771295c-2.2039608 0-3.9903493-1.7903571-3.9903493-3.9998571v-1.9568572h100.3584698v1.9568572c0 2.2095-1.786388 3.9998571-3.990991 3.9998571z" stroke="#4c4c4c" stroke-linejoin="round" stroke-width="1.8"/><path d="m81.9623507 85.9426957h-13.8510853c-1.1019804 0-1.9948539-.8955-1.9948539-1.9992857v-.6087857h17.8414345v.6087857c0 1.1037857-.893515 1.9992857-1.9954953 1.9992857" fill="#4c4c4c"/><path d="m45.3857102 83.9905714h56.7686668v-83.9905714h-56.7686668z" fill="#fff"/><path d="m45.3857102 83.9905714h56.7686668v-83.9905714h-56.7686668z" stroke="#4c4c4c" stroke-linejoin="round" stroke-width="1.8"/><path d="m65.2419471 25.3407214h28.8349396m-28.8349396 4.7637h26.1313032" stroke="#a7a7a7" stroke-linecap="round" stroke-linejoin="round" stroke-width="1.8"/><path d="m61.2555106 27.7225714c0 2.3547857-1.9050534 4.2640715-4.2552607 4.2640715-2.3495659 0-4.2546193-1.9092858-4.2546193-4.2640715 0-2.3554285 1.9050534-4.2647143 4.2546193-4.2647143 2.3502073 0 4.2552607 1.9092858 4.2552607 4.2647143" fill="#e8e8e8"/><path d="m55.2483705 27.7872429 1.1250719 1.1275714 2.3790718-2.3843572m6.4894329 13.8119786h28.8349396m-28.8349396 4.7636357h26.1313032" stroke="#a7a7a7" stroke-linecap="round" stroke-linejoin="round" stroke-width="1.8"/><path d="m61.2555106 42.7242857c0 2.3547857-1.9050534 4.2640714-4.2552607 4.2640714-2.3495659 0-4.2546193-1.9092857-4.2546193-4.2640714s1.9050534-4.2640714 4.2546193-4.2640714c2.3502073 0 4.2552607 1.9092857 4.2552607 4.2640714" fill="#e8e8e8"/><path d="m55.2483705 42.7895357 1.1250719 1.1269286 2.3790718-2.3843572m6.4894329 28.8136929h28.8349396m-28.8349396 4.7642786h26.1313032" stroke="#a7a7a7" stroke-linecap="round" stroke-linejoin="round" stroke-width="1.8"/><path d="m61.2555106 72.7275857c0 2.3554286-1.9050534 4.2647143-4.2552607 4.2647143-2.3495659 0-4.2546193-1.9092857-4.2546193-4.2647143 0-2.3547857 1.9050534-4.2640714 4.2546193-4.2640714 2.3502073 0 4.2552607 1.9092857 4.2552607 4.2640714" fill="#e8e8e8"/><path d="m55.2483705 72.7929 1.1250719 1.1275714 2.3790718-2.385m6.4894329-61.1970428h28.8349396m-28.8349396 4.7643428h26.1313032" stroke="#a7a7a7" stroke-linecap="round" stroke-linejoin="round" stroke-width="1.8"/><path d="m61.2555106 12.7209214c0 2.3547857-1.9050534 4.2640715-4.2552607 4.2640715-2.3495659 0-4.2546193-1.9092858-4.2546193-4.2640715 0-2.3554285 1.9050534-4.26471426 4.2546193-4.26471426 2.3502073 0 4.2552607 1.90928576 4.2552607 4.26471426" fill="#e8e8e8"/><path d="m55.4218779 14.3029286 3.1577703-3.1647857zm0-3.1646572 3.1577703 3.1647857zm9.8200692 44.2058143h28.8349396m-28.8349396 4.7637h26.1313032" stroke="#a7a7a7" stroke-linecap="round" stroke-linejoin="round" stroke-width="1.8"/><path d="m61.2555106 57.7259357c0 2.3554286-1.9050534 4.2647143-4.2552607 4.2647143-2.3495659 0-4.2546193-1.9092857-4.2546193-4.2647143 0-2.3547857 1.9050534-4.2640714 4.2546193-4.2640714 2.3502073 0 4.2552607 1.9092857 4.2552607 4.2640714" fill="#e8e8e8"/><path d="m55.4218779 59.3085857 3.1577703-3.1647857zm0-3.1646571 3.1577703 3.1647857z" stroke="#a7a7a7" stroke-linecap="round" stroke-linejoin="round" stroke-width="1.8"/><path d="m30.8820702 51.9781357 5.2777035-4.1541428-3.2571923-4.1560715-5.277062 4.1541429z" fill="#cacaca"/><path d="m30.8820702 51.9781357 5.2777035-4.1541428-3.2571923-4.1560715-5.277062 4.1541429z" stroke="#4c4c4c" stroke-linejoin="round" stroke-width="1.8"/><path d="m33.7246408 49.7400929 3.9428833-3.1030715-3.2571923-4.1560714-3.9422418 3.1030714z" fill="#4c4c4c"/><path d="m36.4914583 19.5038214c4.0596239-3.2091428 9.1192405-4.6459285 14.2417174-4.0397143 5.1353056.6042858 9.7318082 3.1847143 12.9357616 7.2681429 3.1859934 4.0673571 4.6125384 9.1311429 4.0095922 14.247-1.2463026 10.611-10.8799716 18.2352857-21.4674503 16.9804286-5.1397955-.6055715-9.7350153-3.1911429-12.9402516-7.2739286-3.1885591-4.0654286-4.6099727-9.1208571-4.0095922-14.2392857.6029462-5.1364286 3.1680333-9.7335 7.2302229-12.9426429" fill="#ddd"/><path d="m36.4914583 19.5038214c4.0596239-3.2091428 9.1192405-4.6459285 14.2417174-4.0397143 5.1353056.6042858 9.7318082 3.1847143 12.9357616 7.2681429 3.1859934 4.0673571 4.6125384 9.1311429 4.0095922 14.247-1.2463026 10.611-10.8799716 18.2352857-21.4674503 16.9804286-5.1397955-.6055715-9.7350153-3.1911429-12.9402516-7.2739286-3.1885591-4.0654286-4.6099727-9.1208571-4.0095922-14.2392857.6029462-5.1364286 3.1680333-9.7335 7.2302229-12.9426429z" stroke="#4c4c4c" stroke-linejoin="round" stroke-width="1.8"/><path d="m36.4100606 44.2067643c2.5484098 3.2502857 6.1917442 5.2952143 10.2693282 5.778 8.4034023.9957857 16.0428588-5.0483572 17.0300229-13.4742857.4753012-4.0628572-.6542608-8.0762143-3.1853519-11.3014286-2.5432784-3.2406429-6.1866129-5.2894286-10.2564997-5.7709286-4.0692454-.4789285-8.079479.6563572-11.3026754 3.2097857-3.2193478 2.5463572-5.2578191 6.1965-5.7395346 10.2670715-.4765841 4.0622143.6529779 8.0704285 3.1847105 11.2917857" fill="#fff"/><path d="m36.4100606 44.2067643c2.5484098 3.2502857 6.1917442 5.2952143 10.2693282 5.778 8.4034023.9957857 16.0428588-5.0483572 17.0300229-13.4742857.4753012-4.0628572-.6542608-8.0762143-3.1853519-11.3014286-2.5432784-3.2406429-6.1866129-5.2894286-10.2564997-5.7709286-4.0692454-.4789285-8.079479.6563572-11.3026754 3.2097857-3.2193478 2.5463572-5.2578191 6.1965-5.7395346 10.2670715-.4765841 4.0622143.6529779 8.0704285 3.1847105 11.2917857z" stroke="#4c4c4c" stroke-linejoin="round" stroke-width="1.8"/><path d="m2.06335885 66.6464643 4.61895271 5.8615714 24.81636734-19.6084286c.5400859-.4275.6324521-1.2130714.2058998-1.7543571l-3.0743842-3.9015c-.4259109-.5412857-1.209741-.6338571-1.7504683-.2063571z" fill="#f0f0f0"/><path d="m2.06335885 66.6464643 4.61895271 5.8615714 24.81636734-19.6084286c.5400859-.4275.6324521-1.2130714.2058998-1.7543571l-3.0743842-3.9015c-.4259109-.5412857-1.209741-.6338571-1.7504683-.2063571z" stroke="#4c4c4c" stroke-linejoin="round" stroke-width="1.8"/><path d="m.57754548 69.4112643 3.07374273 3.9008571c.4252695.54 1.20653383.6338572 1.7472611.2102143l1.33161309-1.0446428-4.61895271-5.8628572-1.3239159 1.0388572c-.54393444.4262142-.63758353 1.2143571-.20974831 1.7575714" fill="#cacaca"/><path d="m.57754548 69.4112643 3.07374273 3.9008571c.4252695.54 1.20653383.6338572 1.7472611.2102143l1.33161309-1.0446428-4.61895271-5.8628572-1.3239159 1.0388572c-.54393444.4262142-.63758353 1.2143571-.20974831 1.7575714z" stroke="#4c4c4c" stroke-linejoin="round" stroke-width="1.8"/><path d="m57 34.4993593c0 4.6949574-3.8056833 8.5006407-8.5006407 8.5006407-4.693676 0-8.4993593-3.8056833-8.4993593-8.5006407 0-4.693676 3.8056833-8.4993593 8.4993593-8.4993593 4.6949574 0 8.5006407 3.8056833 8.5006407 8.4993593" fill="url(#a)"/><path d="m45 34.6361186 2.2474831 2.3638814 4.7525169-5" stroke="#fff" stroke-linecap="round" stroke-linejoin="round" stroke-width="2"/></g></svg>